<svg width="30" height="30" viewBox="0 0 30 30" fill="none" xmlns="http://www.w3.org/2000/svg">
<path d="M6.18189 5.625C4.92939 5.625 3.77252 6.25125 3.07595 7.29469L0.468766 11.1919C0.161933 11.6514 -0.001239 12.1918 1.61041e-05 12.7444V18.9553C-0.00171248 19.3715 0.135762 19.7763 0.390574 20.1053C0.645386 20.4344 1.0029 20.6688 1.40627 20.7712L3.83814 21.3872C4.01304 22.2298 4.47241 22.9865 5.13916 23.5306C5.80591 24.0746 6.63949 24.3727 7.50002 24.375C9.23627 24.375 10.6856 23.1741 11.1038 21.5625H19.8338C20.2519 23.1741 21.7013 24.375 23.4375 24.375C25.1738 24.375 26.6231 23.1741 27.0413 21.5625H28.125C29.1506 21.5625 30 20.7131 30 19.6875V16.26C29.9988 15.4244 29.7186 14.6132 29.2038 13.9551C28.689 13.297 27.9691 12.8296 27.1585 12.6272L22.0894 11.3381L18.4275 6.97313C18.077 6.55185 17.6382 6.21274 17.1421 5.97978C16.6461 5.74682 16.1049 5.62571 15.5569 5.625H6.18189ZM6.18189 7.5H10.3125V11.25H2.69533L4.62939 8.34938V8.32031C4.79906 8.06501 5.02991 7.85622 5.3009 7.71294C5.5719 7.56966 5.87537 7.49646 6.18189 7.5ZM12.1875 7.5H15.5569C16.1128 7.5 16.6369 7.74562 16.9922 8.17406L19.5703 11.25H12.1875V7.5ZM1.87502 13.125H21.4453L26.7188 14.4431C27.1234 14.5435 27.4824 14.7775 27.7376 15.1072C27.9928 15.4369 28.1293 15.8431 28.125 16.26V19.6875H27.0413C26.6231 18.0759 25.1738 16.875 23.4375 16.875C21.7013 16.875 20.2519 18.0759 19.8338 19.6875H11.1038C10.6856 18.0759 9.23627 16.875 7.50002 16.875C5.83783 16.875 4.44189 17.9738 3.95533 19.4822L1.87502 18.9562V13.125ZM7.50002 18.75C8.5472 18.75 9.37502 19.5778 9.37502 20.625C9.37502 21.6722 8.5472 22.5 7.50002 22.5C6.45283 22.5 5.62502 21.6722 5.62502 20.625C5.62502 19.5778 6.45283 18.75 7.50002 18.75ZM23.4375 18.75C24.4847 18.75 25.3125 19.5778 25.3125 20.625C25.3125 21.6722 24.4847 22.5 23.4375 22.5C22.3903 22.5 21.5625 21.6722 21.5625 20.625C21.5625 19.5778 22.3903 18.75 23.4375 18.75Z" fill="white"/>
</svg>
