<svg width="31" height="30" viewBox="0 0 31 30" fill="none" xmlns="http://www.w3.org/2000/svg">
<path d="M21.4675 3.73736C21.3175 3.59185 21.1394 3.47641 20.9432 3.39764C20.747 3.31887 20.5368 3.27832 20.3244 3.27832C20.112 3.27832 19.9017 3.31887 19.7056 3.39764C19.5094 3.47641 19.3312 3.59185 19.1813 3.73736L8.4475 14.1249C8.32776 14.2405 8.23276 14.3779 8.16794 14.5291C8.10313 14.6803 8.06976 14.8424 8.06976 15.0061C8.06976 15.1698 8.10313 15.3319 8.16794 15.4831C8.23276 15.6344 8.32776 15.7717 8.4475 15.8874L19.1813 26.2749C19.8142 26.8874 20.8346 26.8874 21.4675 26.2749C22.1004 25.6624 22.1004 24.6749 21.4675 24.0624L12.1158 14.9999L21.4804 5.93736C22.1004 5.33736 22.1004 4.33736 21.4675 3.73736Z" fill="black"/>
</svg>
