<svg width="19" height="12" viewBox="0 0 19 12" fill="none" xmlns="http://www.w3.org/2000/svg">
<path d="M18 6.09365H9.5007M1.63034 4.91936L6.9509 1.27734C7.18806 1.13501 7.45631 1.05274 7.7324 1.03768C8.00849 1.02261 8.28409 1.07521 8.53529 1.19089C8.78649 1.30658 9.00571 1.48187 9.17394 1.70157C9.34217 1.92126 9.45433 2.17873 9.5007 2.45164V9.73566C9.45433 10.0086 9.34217 10.266 9.17394 10.4857C9.00571 10.7054 8.78649 10.8807 8.53529 10.9964C8.28409 11.1121 8.00849 11.1647 7.7324 11.1496C7.45631 11.1346 7.18806 11.0523 6.9509 10.91L1.64733 7.26794C1.44991 7.14305 1.28699 6.97049 1.17354 6.76612C1.06009 6.56174 0.999748 6.33211 0.998056 6.0983C0.996363 5.86449 1.05337 5.634 1.16385 5.42801C1.27433 5.22201 1.43474 5.04711 1.63034 4.91936Z" stroke="black" stroke-width="1.69986" stroke-linecap="round" stroke-linejoin="round"/>
</svg>
