<svg width="31" height="25" viewBox="0 0 31 25" fill="none" xmlns="http://www.w3.org/2000/svg">
<path d="M27.4114 5.70441C27.207 4.24425 26.4627 2.91135 25.3227 1.96421C24.1828 1.01707 22.7285 0.523203 21.242 0.578391C19.7554 0.633579 18.3425 1.23389 17.2773 2.26289C16.2121 3.2919 15.5705 4.67626 15.4769 6.14747C9.38933 8.63543 3.43932 2.44962 3.43932 2.44962C1.71966 12.6741 6.87863 17.3603 6.87863 17.3603C4.5399 19.4904 0 19.4904 0 19.4904C0 19.4904 2.71706 24.6027 14.7547 24.6027C26.7923 24.6027 27.5145 10.97 27.5145 10.97C28.6485 10.5611 29.6076 9.78079 30.233 8.75816C30.8585 7.73553 31.1128 6.53192 30.9538 5.34655C29.794 5.61934 28.6029 5.73966 27.4114 5.70441Z" fill="#00C2FF"/>
</svg>
