<svg width="20" height="20" viewBox="0 0 20 20" fill="none" xmlns="http://www.w3.org/2000/svg">
<path d="M3.21882 13.8041L3.21885 13.8042C3.28035 13.9139 3.30932 14.039 3.30235 14.1646L3.30184 14.1738L3.30141 14.1738L3.28566 14.2795L3.28422 14.2892L3.28376 14.2891L2.47347 17.5261L5.7148 16.7181L5.71498 16.7181C5.79644 16.6979 5.88099 16.6934 5.96413 16.7048L5.97312 16.7061L5.97303 16.7065L6.07543 16.7301L6.08494 16.7323L6.09385 16.7363L6.19175 16.7801L6.19989 16.7838L6.1997 16.7841C7.23668 17.3645 8.39291 17.6996 9.57961 17.7636C10.7663 17.8276 11.9519 17.6189 13.0454 17.1535C14.1388 16.6881 15.111 15.9784 15.8873 15.0789C16.6637 14.1793 17.2235 13.1139 17.5237 11.9644C17.824 10.8149 17.8568 9.61187 17.6195 8.44772C17.3822 7.28358 16.8813 6.18927 16.1551 5.24884C15.4288 4.3084 14.4967 3.54685 13.4302 3.02266C12.3637 2.49848 11.1912 2.22561 10.0028 2.22499L3.21882 13.8041ZM3.21882 13.8041C2.55477 12.6208 2.21202 11.2845 2.22463 9.92774C2.23723 8.57104 2.60475 7.24124 3.29066 6.07051C3.97657 4.89977 4.957 3.92885 6.13452 3.25423C7.31203 2.57961 8.64562 2.22478 10.0028 2.22499L3.21882 13.8041ZM10.6757 12.3409L10.6756 12.3405L10.5744 12.3495L10.5655 12.3503V12.3499L7.18972 12.3499L7.18953 12.3499M10.6757 12.3409L6.74078 11.3468C6.65562 11.4586 6.61543 11.5983 6.62814 11.7383C6.64084 11.8783 6.70551 12.0084 6.80942 12.1031C6.91332 12.1978 7.04893 12.2502 7.18953 12.2499V12.3499M10.6757 12.3409L10.6846 12.3393C10.8475 12.3098 10.9935 12.2204 11.0938 12.0887C11.1941 11.957 11.2415 11.7925 11.2265 11.6276C11.2115 11.4627 11.1354 11.3094 11.013 11.1979C10.8907 11.0864 10.731 11.0247 10.5655 11.0249M10.6757 12.3409L10.5653 11.0249M7.18953 12.3499C7.02401 12.3502 6.86438 12.2885 6.74205 12.177C6.61968 12.0655 6.54351 11.9122 6.52855 11.7473C6.51358 11.5824 6.56091 11.4179 6.66121 11.2862C6.76151 11.1544 6.90751 11.065 7.07044 11.0355L7.07936 11.0339L7.0794 11.0343L7.18068 11.0253L7.18953 11.0245V11.0249L10.5653 11.0249M7.18953 12.3499L10.5653 11.0249M10.5653 11.0249L10.5655 11.1249V11.0249M10.5653 11.0249C10.5654 11.0249 10.5654 11.0249 10.5655 11.0249M10.5653 11.0249L10.5655 11.0249M12.9263 8.96597L12.9263 8.96556L12.825 8.97456L12.8162 8.97535V8.97495H7.18972H7.18953V8.87495L12.9263 8.96597ZM12.9263 8.96597L12.9352 8.96435M12.9263 8.96597L12.9352 8.96435M12.9352 8.96435C13.0982 8.93486 13.2442 8.84545 13.3445 8.71372C13.4448 8.58198 13.4921 8.41748 13.4771 8.25259C13.4622 8.08771 13.386 7.93441 13.2636 7.82287C13.1413 7.71134 12.9816 7.64966 12.816 7.64996M12.9352 8.96435L12.816 7.64996M12.816 7.64996H12.8162V7.74996C12.9568 7.7497 13.0924 7.80208 13.1963 7.89678C13.3002 7.99148 13.3649 8.12164 13.3776 8.26163C13.3903 8.40162 13.3501 8.54129 13.2649 8.65314L12.816 7.64996ZM10.0029 0.9H10.0028C7.5887 0.9 5.27342 1.85873 3.56634 3.5653C1.85927 5.27187 0.900244 7.58648 0.900224 9.99995L0.900265 10.002L0.908142 10.3912L0.90804 10.3912L0.908335 10.3957L0.936468 10.8255L0.936435 10.8255L0.936669 10.828C1.04122 11.9725 1.36167 13.0868 1.88107 14.112L1.88106 14.112L1.88174 14.1133L1.93491 14.2145L0.920105 18.277L0.919812 18.277L0.918518 18.2846L0.902763 18.378L0.901369 18.3863V18.3946V18.4869H0.900981L0.901756 18.4957C0.910175 18.5912 0.939214 18.6837 0.986869 18.7668C1.03452 18.85 1.09966 18.9218 1.17778 18.9774C1.2559 19.0329 1.34514 19.0709 1.43935 19.0886C1.53355 19.1063 1.63048 19.1034 1.72345 19.08L5.78761 18.0657L5.88973 18.1205L5.88972 18.1205L5.89195 18.1217C7.1188 18.7415 8.47013 19.0755 9.84455 19.0986C11.219 19.1217 12.5808 18.8333 13.8278 18.2551C15.0748 17.6769 16.1746 16.8238 17.0447 15.7599C17.9148 14.696 18.5325 13.4489 18.8516 12.1122C19.1707 10.7756 19.1828 9.38398 18.887 8.04195C18.5913 6.69991 17.9953 5.44228 17.1439 4.36341C16.2924 3.28455 15.2076 2.41248 13.9709 1.81265C12.7341 1.21281 11.3775 0.900794 10.0029 0.9Z" fill="black" stroke="black" stroke-width="0.2"/>
</svg>
