<svg width="19" height="18" viewBox="0 0 19 18" fill="none" xmlns="http://www.w3.org/2000/svg">
<path d="M6.52491 11.1055H12.4751M6.52491 6.89503H9.49999M11.3445 16.4865C14.901 16.2532 17.7333 13.407 17.9662 9.83395C18.0113 9.13501 18.0113 8.4108 17.9662 7.71186C17.7333 4.13969 14.901 1.29509 11.3445 1.06015C10.1162 0.979951 8.88381 0.979951 7.65544 1.06015C4.09895 1.29425 1.26668 4.13969 1.03377 7.71271C0.988743 8.41936 0.988743 9.12813 1.03377 9.83479C1.11877 11.1358 1.69934 12.3409 2.38361 13.3581C2.78057 14.0697 2.51876 14.9581 2.1048 15.7354C1.80729 16.2953 1.65769 16.5749 1.77754 16.777C1.89654 16.9791 2.1643 16.9859 2.69896 16.9985C3.75724 17.0238 4.47041 16.7273 5.03653 16.3139C5.35698 16.0789 5.51764 15.9619 5.62814 15.9484C5.73864 15.9349 5.9571 16.0242 6.39231 16.201C6.78332 16.361 7.23808 16.4596 7.65459 16.4873C8.86588 16.5665 10.1316 16.5665 11.3454 16.4873" stroke="black" stroke-width="1.5" stroke-linecap="round" stroke-linejoin="round"/>
</svg>
