<svg width="17" height="17" viewBox="0 0 17 17" fill="none" xmlns="http://www.w3.org/2000/svg">
<path fill-rule="evenodd" clip-rule="evenodd" d="M11.7088 6.35366C11.8083 6.45327 11.8641 6.58829 11.8641 6.72907C11.8641 6.86985 11.8083 7.00488 11.7088 7.10449L8.87544 9.93782C8.77583 10.0373 8.64081 10.0932 8.50003 10.0932C8.35925 10.0932 8.22422 10.0373 8.12461 9.93782L5.29128 7.10449C5.23908 7.05585 5.19722 6.9972 5.16818 6.93204C5.13915 6.86687 5.12353 6.79652 5.12228 6.72519C5.12102 6.65386 5.13414 6.58301 5.16086 6.51686C5.18758 6.45071 5.22735 6.39062 5.27779 6.34017C5.32824 6.28972 5.38833 6.24995 5.45448 6.22324C5.52063 6.19652 5.59148 6.18339 5.66281 6.18465C5.73415 6.18591 5.80449 6.20152 5.86966 6.23056C5.93482 6.2596 5.99347 6.30146 6.04211 6.35366L8.50003 8.81157L10.9579 6.35366C11.0576 6.25417 11.1926 6.19829 11.3334 6.19829C11.4741 6.19829 11.6092 6.25417 11.7088 6.35366Z" fill="black" fill-opacity="0.56"/>
</svg>
