<svg width="24" height="27" viewBox="0 0 24 27" fill="none" xmlns="http://www.w3.org/2000/svg">
<mask id="path-1-inside-1_553_738" fill="white">
<path fill-rule="evenodd" clip-rule="evenodd" d="M12.7412 26.0725L12.7275 26.075L12.6387 26.1188L12.6137 26.1238L12.5962 26.1188L12.5075 26.075C12.4941 26.0709 12.4841 26.073 12.4775 26.0813L12.4725 26.0938L12.4512 26.6288L12.4575 26.6538L12.47 26.67L12.6 26.7625L12.6187 26.7675L12.6337 26.7625L12.7637 26.67L12.7787 26.65L12.7837 26.6288L12.7625 26.095C12.7591 26.0817 12.7521 26.0742 12.7412 26.0725ZM13.0725 25.9313L13.0562 25.9338L12.825 26.05L12.8125 26.0625L12.8087 26.0763L12.8312 26.6138L12.8375 26.6288L12.8475 26.6375L13.0987 26.7538C13.1146 26.758 13.1266 26.7546 13.135 26.7438L13.14 26.7263L13.0975 25.9588C13.0933 25.9438 13.085 25.9346 13.0725 25.9313ZM12.1787 25.9338C12.1732 25.9305 12.1666 25.9294 12.1603 25.9308C12.1541 25.9322 12.1485 25.9359 12.145 25.9413L12.1375 25.9588L12.095 26.7263C12.0958 26.7413 12.1029 26.7513 12.1162 26.7563L12.135 26.7538L12.3862 26.6375L12.3987 26.6275L12.4037 26.6138L12.425 26.0763L12.4212 26.0613L12.4087 26.0488L12.1787 25.9338Z"/>
</mask>
<path d="M12.7412 26.0725L12.8933 25.0842L12.7274 25.0587L12.5623 25.0887L12.7412 26.0725ZM12.7275 26.075L12.5485 25.0912L12.4108 25.1162L12.2853 25.1781L12.7275 26.075ZM12.6387 26.1188L12.8348 27.0994L12.9633 27.0737L13.0809 27.0157L12.6387 26.1188ZM12.6137 26.1238L12.339 27.0853L12.5721 27.1519L12.8098 27.1044L12.6137 26.1238ZM12.5962 26.1188L12.1541 27.0157L12.2349 27.0556L12.3215 27.0803L12.5962 26.1188ZM12.5075 26.075L12.9496 25.1781L12.8799 25.1437L12.8057 25.1206L12.5075 26.075ZM12.4775 26.0813L11.6966 25.4566L11.604 25.5723L11.549 25.7099L12.4775 26.0813ZM12.4725 26.0938L11.544 25.7224L11.4801 25.8822L11.4733 26.0541L12.4725 26.0938ZM12.4512 26.6288L11.452 26.5891L11.4463 26.7323L11.4811 26.8713L12.4512 26.6288ZM12.4575 26.6538L11.4873 26.8963L11.5378 27.0984L11.6648 27.2635L12.4575 26.6538ZM12.47 26.67L11.6773 27.2798L11.7685 27.3982L11.8902 27.4848L12.47 26.67ZM12.6 26.7625L12.0202 27.5773L12.1676 27.6822L12.3423 27.7288L12.6 26.7625ZM12.6187 26.7675L12.3611 27.7338L12.6506 27.811L12.9349 27.7162L12.6187 26.7675ZM12.6337 26.7625L12.9499 27.7112L13.0917 27.664L13.2135 27.5773L12.6337 26.7625ZM12.7637 26.67L13.3435 27.4848L13.4703 27.3946L13.5637 27.27L12.7637 26.67ZM12.7787 26.65L13.5787 27.25L13.7042 27.0827L13.7521 26.8791L12.7787 26.65ZM12.7837 26.6288L13.7571 26.8578L13.7883 26.7252L13.7829 26.589L12.7837 26.6288ZM12.7625 26.095L13.7617 26.0553L13.7576 25.9524L13.7326 25.8525L12.7625 26.095ZM13.0725 25.9313L13.3301 24.9651L13.1276 24.9111L12.9205 24.9429L13.0725 25.9313ZM13.0562 25.9338L12.9042 24.9454L12.7482 24.9694L12.6071 25.0403L13.0562 25.9338ZM12.825 26.05L12.3758 25.1566L12.2318 25.229L12.1179 25.3429L12.825 26.05ZM12.8125 26.0625L12.1054 25.3554L11.9176 25.5432L11.8477 25.7995L12.8125 26.0625ZM12.8087 26.0763L11.8439 25.8132L11.8031 25.963L11.8096 26.1181L12.8087 26.0763ZM12.8312 26.6138L11.8321 26.6556L11.8396 26.8338L11.9082 26.9984L12.8312 26.6138ZM12.8375 26.6288L11.9144 27.0134L12.0039 27.2282L12.179 27.3814L12.8375 26.6288ZM12.8475 26.6375L12.189 27.3901L12.2971 27.4848L12.4276 27.5451L12.8475 26.6375ZM13.0987 26.7538L12.6788 27.6614L12.7589 27.6984L12.8442 27.7209L13.0987 26.7538ZM13.135 26.7438L13.9276 27.3535L14.044 27.2021L14.0965 27.0185L13.135 26.7438ZM13.14 26.7263L14.1015 27.001L14.1477 26.8391L14.1384 26.671L13.14 26.7263ZM13.0975 25.9588L14.0959 25.9035L14.09 25.7954L14.061 25.6912L13.0975 25.9588ZM12.1787 25.9338L11.6604 26.789L11.6952 26.8101L11.7315 26.8282L12.1787 25.9338ZM12.145 25.9413L11.3133 25.3861L11.2621 25.4627L11.2258 25.5473L12.145 25.9413ZM12.1375 25.9588L11.2183 25.5648L11.1488 25.7272L11.139 25.9035L12.1375 25.9588ZM12.095 26.7263L11.0965 26.671L11.0934 26.7264L11.0965 26.7818L12.095 26.7263ZM12.1162 26.7563L11.7651 27.6926L11.9999 27.7807L12.2484 27.7475L12.1162 26.7563ZM12.135 26.7538L12.2672 27.745L12.4174 27.725L12.5549 27.6614L12.135 26.7538ZM12.3862 26.6375L12.8061 27.5451L12.9162 27.4942L13.0109 27.4184L12.3862 26.6375ZM12.3987 26.6275L13.0234 27.4084L13.2426 27.2331L13.3385 26.9693L12.3987 26.6275ZM12.4037 26.6138L13.3435 26.9555L13.3968 26.809L13.4029 26.6533L12.4037 26.6138ZM12.425 26.0763L13.4242 26.1158L13.4298 25.9727L13.3951 25.8337L12.425 26.0763ZM12.4212 26.0613L13.3914 25.8187L13.3242 25.55L13.1283 25.3542L12.4212 26.0613ZM12.4087 26.0488L13.1158 25.3417L13.0011 25.2269L12.8559 25.1544L12.4087 26.0488ZM12.5623 25.0887L12.5485 25.0912L12.9064 27.0589L12.9202 27.0564L12.5623 25.0887ZM12.2853 25.1781L12.1966 25.2219L13.0809 27.0157L13.1696 26.972L12.2853 25.1781ZM12.4426 25.1382L12.4176 25.1432L12.8098 27.1044L12.8348 27.0994L12.4426 25.1382ZM12.8884 25.1623L12.8709 25.1573L12.3215 27.0803L12.339 27.0853L12.8884 25.1623ZM13.0384 25.2219L12.9496 25.1781L12.0653 26.972L12.1541 27.0157L13.0384 25.2219ZM12.8057 25.1206C12.6936 25.0855 12.5079 25.0483 12.2861 25.0945C12.0426 25.1452 11.8382 25.2796 11.6966 25.4566L13.2583 26.706C13.1234 26.8746 12.9273 27.0039 12.6939 27.0525C12.482 27.0966 12.308 27.0604 12.2092 27.0295L12.8057 25.1206ZM11.549 25.7099L11.544 25.7224L13.401 26.4652L13.406 26.4527L11.549 25.7099ZM11.4733 26.0541L11.452 26.5891L13.4504 26.6685L13.4717 26.1335L11.4733 26.0541ZM11.4811 26.8713L11.4873 26.8963L13.4276 26.4113L13.4214 26.3863L11.4811 26.8713ZM11.6648 27.2635L11.6773 27.2798L13.2626 26.0603L13.2501 26.0441L11.6648 27.2635ZM11.8902 27.4848L12.0202 27.5773L13.1797 25.9478L13.0497 25.8553L11.8902 27.4848ZM12.3423 27.7288L12.3611 27.7338L12.8764 25.8013L12.8576 25.7963L12.3423 27.7288ZM12.9349 27.7162L12.9499 27.7112L12.3175 25.8139L12.3025 25.8189L12.9349 27.7162ZM13.2135 27.5773L13.3435 27.4848L12.184 25.8553L12.054 25.9478L13.2135 27.5773ZM13.5637 27.27L13.5787 27.25L11.9787 26.0501L11.9637 26.0701L13.5637 27.27ZM13.7521 26.8791L13.7571 26.8578L11.8103 26.3998L11.8053 26.421L13.7521 26.8791ZM13.7829 26.589L13.7617 26.0553L11.7633 26.1348L11.7845 26.6686L13.7829 26.589ZM13.7326 25.8525C13.7027 25.7328 13.6358 25.556 13.4817 25.3928C13.3155 25.2168 13.1039 25.1166 12.8933 25.0842L12.5892 27.0609C12.3894 27.0302 12.1868 26.9345 12.0276 26.766C11.8806 26.6104 11.8189 26.444 11.7923 26.3376L13.7326 25.8525ZM12.9205 24.9429L12.9042 24.9454L13.2082 26.9222L13.2245 26.9197L12.9205 24.9429ZM12.6071 25.0403L12.3758 25.1566L13.2741 26.9435L13.5054 26.8273L12.6071 25.0403ZM12.1179 25.3429L12.1054 25.3554L13.5196 26.7697L13.5321 26.7572L12.1179 25.3429ZM11.8477 25.7995L11.8439 25.8132L13.7735 26.3394L13.7772 26.3256L11.8477 25.7995ZM11.8096 26.1181L11.8321 26.6556L13.8303 26.572L13.8078 26.0345L11.8096 26.1181ZM11.9082 26.9984L11.9144 27.0134L13.7605 26.2441L13.7543 26.2291L11.9082 26.9984ZM12.179 27.3814L12.189 27.3901L13.506 25.885L13.496 25.8762L12.179 27.3814ZM12.4276 27.5451L12.6788 27.6614L13.5186 25.8462L13.2674 25.73L12.4276 27.5451ZM12.8442 27.7209C12.9719 27.7545 13.1649 27.7793 13.3856 27.7184C13.6202 27.6537 13.8037 27.5146 13.9276 27.3535L12.3423 26.1341C12.458 25.9838 12.6312 25.8518 12.8538 25.7904C13.0623 25.7329 13.2414 25.7573 13.3532 25.7867L12.8442 27.7209ZM14.0965 27.0185L14.1015 27.001L12.1784 26.4516L12.1734 26.4691L14.0965 27.0185ZM14.1384 26.671L14.0959 25.9035L12.099 26.0141L12.1415 26.7816L14.1384 26.671ZM14.061 25.6912C13.9846 25.4162 13.7597 25.0796 13.3301 24.9651L12.8148 26.8975C12.6441 26.852 12.4791 26.7574 12.3482 26.6134C12.2237 26.4764 12.1632 26.3319 12.134 26.2264L14.061 25.6912ZM12.697 25.0786C12.471 24.9416 12.2011 24.8973 11.9434 24.9546L12.3773 26.907C12.1322 26.9614 11.8754 26.9193 11.6604 26.789L12.697 25.0786ZM11.9434 24.9546C11.6857 25.0119 11.4599 25.1664 11.3133 25.3861L12.9767 26.4965C12.8372 26.7055 12.6224 26.8525 12.3773 26.907L11.9434 24.9546ZM11.2258 25.5473L11.2183 25.5648L13.0566 26.3527L13.0641 26.3352L11.2258 25.5473ZM11.139 25.9035L11.0965 26.671L13.0934 26.7816L13.1359 26.0141L11.139 25.9035ZM11.0965 26.7818C11.105 26.9346 11.1503 27.1331 11.2849 27.3231C11.4219 27.5165 11.6023 27.6316 11.7651 27.6926L12.4673 25.82C12.6168 25.876 12.787 25.9836 12.9169 26.167C13.0444 26.347 13.0858 26.533 13.0934 26.6708L11.0965 26.7818ZM12.2484 27.7475L12.2672 27.745L12.0027 25.7626L11.984 25.7651L12.2484 27.7475ZM12.5549 27.6614L12.8061 27.5451L11.9663 25.73L11.7151 25.8462L12.5549 27.6614ZM13.0109 27.4184L13.0234 27.4084L11.7741 25.8466L11.7616 25.8566L13.0109 27.4184ZM13.3385 26.9693L13.3435 26.9555L11.4639 26.2721L11.4589 26.2858L13.3385 26.9693ZM13.4029 26.6533L13.4242 26.1158L11.4258 26.0368L11.4045 26.5743L13.4029 26.6533ZM13.3951 25.8337L13.3914 25.8187L11.4511 26.3039L11.4548 26.3189L13.3951 25.8337ZM13.1283 25.3542L13.1158 25.3417L11.7016 26.7559L11.7141 26.7684L13.1283 25.3542ZM12.8559 25.1544L12.6259 25.0394L11.7315 26.8282L11.9615 26.9432L12.8559 25.1544Z" fill="white" mask="url(#path-1-inside-1_553_738)"/>
<path d="M21.5392 1.03636C20.957 0.920544 20.3562 0.937434 19.7814 1.08578C19.2061 1.23428 18.6716 1.51068 18.2179 1.89439L17.895 1.51261L18.2179 1.8944L14.1516 5.33315L13.9509 5.50291L13.6972 5.43376L4.78474 3.00376L4.78461 3.00372C4.60388 2.95439 4.41332 2.95373 4.23225 3.0018C4.05118 3.04986 3.88603 3.14495 3.75356 3.27742L2.12615 4.90484C2.12612 4.90486 2.12609 4.90489 2.12607 4.90492C2.04267 4.98837 1.97979 5.09004 1.94235 5.20192C1.9049 5.31384 1.89394 5.43292 1.91033 5.5498C1.92672 5.66667 1.97002 5.77814 2.03682 5.87544L1.62461 6.15843L2.03682 5.87544C2.10361 5.97273 2.19208 6.0532 2.29526 6.11049L2.29538 6.11056L8.91538 9.78931L9.44318 10.0826L9.05661 10.5465L6.08036 14.1177L5.89003 14.3461L5.59847 14.288L4.28222 14.0255L4.28168 14.0254C4.11022 13.991 3.93293 13.9994 3.76553 14.05C3.59825 14.1005 3.44602 14.1915 3.32232 14.3149L21.5392 1.03636ZM21.5392 1.03636L21.5392 1.0366C22.2575 1.18067 22.8191 1.74212 22.9634 2.46039C23.0796 3.04314 23.0628 3.6446 22.9143 4.21996C22.7658 4.7953 22.4895 5.32973 22.1058 5.78344C22.1058 5.78346 22.1057 5.78348 22.1057 5.7835L18.667 9.84844L18.4972 10.0492L18.5664 10.3029L20.9964 19.2166L20.9964 19.2168C21.0457 19.3975 21.0464 19.5881 20.9983 19.7691C20.9503 19.9502 20.8552 20.1153 20.7227 20.2478L19.0953 21.8752C19.0953 21.8753 19.0952 21.8753 19.0952 21.8753C19.0118 21.9587 18.9101 22.0216 18.7982 22.059C18.6863 22.0965 18.5672 22.1074 18.4503 22.091C18.3335 22.0747 18.222 22.0314 18.1247 21.9646C18.0274 21.8978 17.9469 21.8093 17.8896 21.7061L17.8896 21.7061L14.2121 15.0861L13.9189 14.5582L13.455 14.9447L9.88247 17.921L9.65401 18.1113L9.71217 18.4029L9.97467 19.7192L9.97484 19.72C10.0094 19.8916 10.001 20.0691 9.95043 20.2366C9.89986 20.4042 9.80868 20.5567 9.68499 20.6805L7.60547 22.7588C7.52001 22.8441 7.41551 22.9079 7.30056 22.945C7.1856 22.982 7.0635 22.9912 6.9443 22.9718C6.8251 22.9524 6.7122 22.905 6.61492 22.8335L6.31866 23.2362L6.61492 22.8335C6.51763 22.7619 6.43873 22.6683 6.38472 22.5602L6.38462 22.56L4.80962 19.4138L4.73515 19.265L4.5864 19.1905L1.4414 17.6155L1.44113 17.6154C1.33312 17.5614 1.23947 17.4825 1.16791 17.3852C1.09636 17.2879 1.04893 17.175 1.02954 17.0558C1.01016 16.9366 1.01936 16.8145 1.0564 16.6996C1.09341 16.5847 1.15715 16.4803 1.24239 16.3948C1.24245 16.3948 1.24252 16.3947 1.24258 16.3947L3.32203 14.3152L21.5392 1.03636ZM21.5181 2.91138L21.4674 2.53227L21.0883 2.48196C20.75 2.43708 20.4061 2.46335 20.0786 2.55909C19.7511 2.65483 19.4472 2.81792 19.1864 3.03792L19.1858 3.03845L14.6235 6.89951C14.6235 6.89952 14.6235 6.89953 14.6235 6.89954C14.529 6.97935 14.4166 7.035 14.2959 7.0617C14.1751 7.08839 14.0497 7.08533 13.9304 7.05277L13.9304 7.05275L4.91412 4.59275L4.63658 4.51702L4.43163 4.71891L4.34788 4.80141L3.87193 5.27026L4.45595 5.5947L10.9497 9.2022C11.0478 9.2567 11.1327 9.33219 11.1982 9.42327C11.2638 9.51435 11.3085 9.61879 11.329 9.72912C11.3496 9.83945 11.3455 9.95296 11.3171 10.0615C11.2888 10.1701 11.2368 10.2711 11.1649 10.3573L11.1647 10.3575L6.75968 15.6425L6.75958 15.6426C6.67173 15.7481 6.55705 15.8279 6.42763 15.8736C6.29821 15.9193 6.15885 15.9292 6.02426 15.9023L6.02417 15.9023L4.47792 15.5935L4.2156 15.5412L4.02646 15.7303L3.51646 16.2403L3.02606 16.7307L3.64629 17.041L5.59254 18.0148L5.59268 18.0148C5.76204 18.0995 5.89937 18.2368 5.98404 18.4062L5.98422 18.4066L6.95922 20.3528L7.27009 20.9734L7.76025 20.482L8.269 19.972L8.45763 19.7829L8.40533 19.521L8.09658 17.9747L8.09656 17.9746C8.06966 17.84 8.07959 17.7007 8.1253 17.5712C8.17101 17.4418 8.25081 17.3271 8.35627 17.2393L8.35635 17.2392L13.6426 12.8342L13.6429 12.834C13.729 12.7621 13.83 12.7101 13.9386 12.6817C14.0472 12.6534 14.1607 12.6493 14.271 12.6699C14.3813 12.6904 14.4858 12.7351 14.5769 12.8006C14.6679 12.8662 14.7434 12.951 14.7979 13.0491C14.7979 13.0491 14.7979 13.0492 14.7979 13.0492L18.4041 19.5429L18.7285 20.127L19.1975 19.651L19.28 19.5673L19.4818 19.3623L19.4061 19.0848L16.9475 10.0689C16.915 9.94954 16.9121 9.82408 16.9389 9.70334C16.9657 9.5826 17.0215 9.47021 17.1015 9.37584L17.1017 9.37556L20.9617 4.81306L20.9618 4.81298C21.4096 4.2835 21.6092 3.59329 21.5181 2.91138Z" fill="white" stroke="white"/>
</svg>
