<svg width="30" height="30" viewBox="0 0 30 30" fill="none" xmlns="http://www.w3.org/2000/svg">
<path d="M7.56423 2.14307C6.50995 2.14307 5.61638 2.93379 5.50709 3.99129C5.34852 5.49986 5.08923 8.23093 5.08923 9.91093C5.08923 11.4966 5.81566 12.9131 6.9503 13.8452C7.32316 14.1516 7.49995 14.4881 7.49995 14.7709V15.4802L7.49888 15.5306C7.45495 16.1724 6.96423 23.3381 6.96423 24.6431C6.96423 25.0652 7.04737 25.4832 7.20891 25.8731C7.37044 26.2631 7.6072 26.6174 7.90568 26.9159C8.20415 27.2144 8.55849 27.4512 8.94847 27.6127C9.33844 27.7742 9.75641 27.8574 10.1785 27.8574C10.6006 27.8574 11.0186 27.7742 11.4086 27.6127C11.7985 27.4512 12.1529 27.2144 12.4514 26.9159C12.7498 26.6174 12.9866 26.2631 13.1481 25.8731C13.3097 25.4832 13.3928 25.0652 13.3928 24.6431C13.3928 23.3381 12.9032 16.1724 12.8582 15.5306L12.8571 15.4802V14.7709C12.8571 14.487 13.0339 14.1516 13.4067 13.8452C13.9891 13.3683 14.4582 12.768 14.7801 12.0875C15.1019 11.4071 15.2685 10.6636 15.2678 9.91093C15.2678 8.23093 15.0085 5.49986 14.8499 3.99129C14.7964 3.48333 14.5565 3.01324 14.1765 2.67188C13.7966 2.33052 13.3036 2.14211 12.7928 2.14307C12.3032 2.14307 11.8521 2.31236 11.4964 2.59629C11.1199 2.3026 10.656 2.14309 10.1785 2.14307C9.70101 2.14309 9.23718 2.3026 8.86066 2.59629C8.49277 2.30193 8.03539 2.14204 7.56423 2.14307ZM9.64281 4.28593C9.64281 4.14385 9.69925 4.00759 9.79971 3.90712C9.90018 3.80666 10.0364 3.75021 10.1785 3.75021C10.3206 3.75021 10.4569 3.80666 10.5573 3.90712C10.6578 4.00759 10.7142 4.14385 10.7142 4.28593V9.91093C10.7142 10.124 10.7989 10.3284 10.9496 10.4791C11.1003 10.6298 11.3047 10.7145 11.5178 10.7145C11.7309 10.7145 11.9353 10.6298 12.086 10.4791C12.2367 10.3284 12.3214 10.124 12.3214 9.91093V4.22164C12.3214 4.09661 12.371 3.9767 12.4595 3.88829C12.5479 3.79988 12.6678 3.75021 12.7928 3.75021C13.0339 3.75021 13.2289 3.92914 13.2524 4.15843C13.411 5.67986 13.6607 8.32843 13.6607 9.91093C13.6614 10.4261 13.5475 10.9351 13.3272 11.4008C13.1068 11.8665 12.7856 12.2773 12.3867 12.6034C11.8103 13.077 11.2499 13.8249 11.2499 14.7709V15.4802C11.2499 15.5338 11.251 15.5831 11.2553 15.6409C11.3024 16.332 11.7857 23.4099 11.7857 24.6431C11.7857 25.0693 11.6163 25.4781 11.3149 25.7795C11.0135 26.0809 10.6048 26.2502 10.1785 26.2502C9.75228 26.2502 9.3435 26.0809 9.0421 25.7795C8.7407 25.4781 8.57138 25.0693 8.57138 24.6431C8.57138 23.4109 9.05352 16.332 9.10173 15.6409C9.10602 15.5831 9.10709 15.5338 9.10709 15.4802V14.7709C9.10709 13.8238 8.54673 13.077 7.97031 12.6034C7.57147 12.2773 7.25022 11.8665 7.02988 11.4008C6.80953 10.9351 6.69561 10.4261 6.69638 9.91093C6.69638 8.32843 6.94602 5.68093 7.10459 4.15843C7.11683 4.04545 7.17067 3.94108 7.25563 3.86562C7.3406 3.79016 7.4506 3.74902 7.56423 3.75021C7.68926 3.75021 7.80917 3.79988 7.89758 3.88829C7.98599 3.9767 8.03566 4.09661 8.03566 4.22164V9.91093C8.03566 10.124 8.12032 10.3284 8.27102 10.4791C8.42172 10.6298 8.62611 10.7145 8.83923 10.7145C9.05235 10.7145 9.25675 10.6298 9.40744 10.4791C9.55814 10.3284 9.64281 10.124 9.64281 9.91093V4.28593ZM24.1071 3.75664V14.1966C24.1071 14.5716 24.2078 16.3363 24.3192 18.2788L24.3257 18.3913C24.4757 21.0013 24.6428 23.9252 24.6428 24.6431C24.6428 25.0693 24.4735 25.4781 24.1721 25.7795C23.8707 26.0809 23.4619 26.2502 23.0357 26.2502C22.6094 26.2502 22.2006 26.0809 21.8992 25.7795C21.5978 25.4781 21.4285 25.0693 21.4285 24.6431C21.4285 24.0056 21.5603 21.4256 21.6953 18.9645C21.7743 17.5222 21.8558 16.0801 21.9396 14.6381L21.9632 14.2438L21.9642 14.1966C21.9642 13.9835 21.8796 13.7791 21.7289 13.6284C21.5782 13.4777 21.3738 13.3931 21.1607 13.3931H19.0178C18.9468 13.3931 18.8786 13.3649 18.8284 13.3146C18.7782 13.2644 18.7499 13.1963 18.7499 13.1252V9.37522C18.75 7.92975 19.3064 6.53977 20.3039 5.49363C21.3014 4.44748 22.6633 3.82547 24.1071 3.75664ZM20.3089 15.0002L20.2746 15.5959C20.2242 16.4713 20.1567 17.6531 20.0903 18.8766C19.9574 21.3056 19.8214 23.9488 19.8214 24.6431C19.8214 25.0652 19.9045 25.4832 20.0661 25.8731C20.2276 26.2631 20.4643 26.6174 20.7628 26.9159C21.0613 27.2144 21.4156 27.4512 21.8056 27.6127C22.1956 27.7742 22.6136 27.8574 23.0357 27.8574C23.4578 27.8574 23.8757 27.7742 24.2657 27.6127C24.6557 27.4512 25.01 27.2144 25.3085 26.9159C25.607 26.6174 25.8437 26.2631 26.0053 25.8731C26.1668 25.4832 26.2499 25.0652 26.2499 24.6431C26.2499 23.8706 26.0807 20.9209 25.9349 18.3699L25.9307 18.2991C25.8139 16.2645 25.7142 14.5181 25.7142 14.1966V2.94664C25.7142 2.73352 25.6296 2.52913 25.4789 2.37843C25.3282 2.22773 25.1238 2.14307 24.9107 2.14307H24.3749C22.4569 2.14307 20.6173 2.90503 19.2611 4.26132C17.9048 5.61761 17.1428 7.45713 17.1428 9.37522V13.1252C17.1428 14.1602 17.9828 15.0002 19.0178 15.0002H20.3089Z" fill="white"/>
</svg>
