<svg width="27" height="29" viewBox="0 0 27 29" fill="none" xmlns="http://www.w3.org/2000/svg">
<path d="M9.27092 1.33146C5.91634 2.48186 3.0553 4.99885 1.4667 8.17211C0.911455 9.26846 0.510447 10.4343 0.271385 11.6388C-0.337838 14.6344 0.0863047 17.8231 1.4667 20.5563C2.36125 22.3398 3.6491 23.9226 5.20686 25.1579C6.67979 26.3315 8.39179 27.1962 10.2117 27.6826C12.5021 28.3003 14.9467 28.2848 17.2602 27.7598C19.3501 27.2811 21.3243 26.2774 22.8975 24.8259C24.5632 23.2895 25.7508 21.2743 26.3831 19.1048C27.0695 16.7345 27.162 14.2098 26.7302 11.7855C22.4116 11.7855 18.0931 11.7855 13.7668 11.7855C13.7668 13.5767 13.7668 15.3756 13.7668 17.1669C16.2654 17.1669 18.7717 17.1669 21.2703 17.1669C20.9773 18.8886 19.9593 20.4559 18.5095 21.4288C17.5995 22.0387 16.5585 22.4402 15.4788 22.6255C14.3915 22.8108 13.2733 22.8339 12.1936 22.6178C11.0909 22.4016 10.0421 21.9383 9.1244 21.2898C7.65918 20.2629 6.54098 18.7496 5.97032 17.0588C5.38423 15.337 5.37652 13.4145 5.97032 11.6928C6.37904 10.4806 7.06538 9.35339 7.96765 8.44234C9.07813 7.29965 10.5202 6.48897 12.078 6.15697C13.4121 5.8713 14.8156 5.92535 16.1189 6.31911C17.2294 6.65883 18.2473 7.26105 19.0879 8.06401C19.9362 7.22245 20.7768 6.37316 21.625 5.53159C22.0646 5.07606 22.535 4.64369 22.9669 4.17272C21.6867 2.98371 20.1752 2.02633 18.5327 1.42411C15.5868 0.320031 12.2476 0.296869 9.27092 1.33146Z" fill="white"/>
<path d="M9.271 1.33137C12.2477 0.296783 15.5869 0.319946 18.5482 1.4163C20.1907 2.01853 21.6945 2.97591 22.9824 4.16491C22.5505 4.62816 22.0878 5.06825 21.6405 5.52378C20.7923 6.36535 19.9517 7.21464 19.1034 8.05621C18.2628 7.25324 17.2449 6.6433 16.1344 6.3113C14.8311 5.91754 13.4276 5.8635 12.0935 6.14917C10.5357 6.48116 9.09363 7.29957 7.98315 8.43453C7.08088 9.34558 6.39454 10.4728 5.98582 11.685C4.48204 10.5191 2.97827 9.34558 1.47449 8.17974C3.05538 4.99876 5.91642 2.48178 9.271 1.33137Z" fill="#E94435"/>
<path d="M0.271385 11.6385C0.510447 10.4341 0.919167 9.26823 1.4667 8.17188C2.97047 9.33772 4.47425 10.5113 5.97803 11.6771C5.38423 13.3989 5.39194 15.3214 5.97803 17.0431C4.47425 18.2089 2.97047 19.3825 1.4667 20.5483C0.0863047 17.8306 -0.337838 14.6342 0.271385 11.6385Z" fill="#F8BB15"/>
<path d="M13.7745 11.7778C18.0931 11.7778 22.4116 11.7778 26.7379 11.7778C27.1697 14.2022 27.0772 16.7269 26.3909 19.0972C25.7585 21.2667 24.5709 23.2896 22.9052 24.8183C21.4477 23.6833 19.9825 22.5484 18.5327 21.4134C19.9825 20.4483 21.0004 18.8733 21.2934 17.1515C18.7949 17.1515 16.2886 17.1515 13.79 17.1515C13.7668 15.368 13.7745 13.5768 13.7745 11.7778Z" fill="#547DBE"/>
<path d="M1.46667 20.556C2.97045 19.3902 4.47423 18.2166 5.97801 17.0508C6.54867 18.7494 7.66687 20.2549 9.13209 21.2818C10.0498 21.9303 11.0986 22.3859 12.2013 22.6098C13.281 22.826 14.4069 22.8028 15.4865 22.6175C16.5662 22.4322 17.6072 22.0307 18.5172 21.4208C19.9747 22.5557 21.4399 23.6907 22.8897 24.8256C21.3165 26.2849 19.3424 27.2809 17.2525 27.7596C14.9467 28.2846 12.5021 28.3 10.204 27.6824C8.38406 27.1959 6.67206 26.3312 5.19913 25.1576C3.64908 23.9146 2.36123 22.3318 1.46667 20.556Z" fill="#34A751"/>
</svg>
