<?xml version="1.0" encoding="UTF-8"?>
<svg version="1.1" xmlns="http://www.w3.org/2000/svg" width="120" height="120">
<path d="M0 0 C1.00289062 -0.01160156 2.00578125 -0.02320313 3.0390625 -0.03515625 C10.10380501 -0.00777353 16.28739933 1.19968133 23 3.375 C23 4.035 23 4.695 23 5.375 C23.969375 5.643125 24.93875 5.91125 25.9375 6.1875 C26.948125 6.579375 27.95875 6.97125 29 7.375 C29.495 8.86 29.495 8.86 30 10.375 C30.5775 10.49875 31.155 10.6225 31.75 10.75 C35.14730887 11.69369691 36.7381774 13.74639536 39 16.375 C39.36784131 17.6992287 39.71202981 19.03113912 40 20.375 C41.485 20.87 41.485 20.87 43 21.375 C44.1875 24.4375 44.1875 24.4375 45 27.375 C45.66 27.375 46.32 27.375 47 27.375 C49.52422543 35.16425752 50.46950844 42.20527076 50.375 50.375 C50.38660156 51.37789062 50.39820312 52.38078125 50.41015625 53.4140625 C50.38277353 60.47880501 49.17531867 66.66239933 47 73.375 C46.34 73.375 45.68 73.375 45 73.375 C44.731875 74.344375 44.46375 75.31375 44.1875 76.3125 C43.795625 77.323125 43.40375 78.33375 43 79.375 C41.515 79.87 41.515 79.87 40 80.375 C39.814375 81.24125 39.814375 81.24125 39.625 82.125 C38.68130309 85.52230887 36.62860464 87.1131774 34 89.375 C32.6757713 89.74284131 31.34386088 90.08702981 30 90.375 C29.505 91.86 29.505 91.86 29 93.375 C25.9375 94.5625 25.9375 94.5625 23 95.375 C23 96.035 23 96.695 23 97.375 C15.21074248 99.89922543 8.16972924 100.84450844 0 100.75 C-1.00289062 100.76160156 -2.00578125 100.77320312 -3.0390625 100.78515625 C-10.10380501 100.75777353 -16.28739933 99.55031867 -23 97.375 C-23 96.715 -23 96.055 -23 95.375 C-23.969375 95.106875 -24.93875 94.83875 -25.9375 94.5625 C-26.948125 94.170625 -27.95875 93.77875 -29 93.375 C-29.33 92.385 -29.66 91.395 -30 90.375 C-30.86625 90.189375 -30.86625 90.189375 -31.75 90 C-35.14730887 89.05630309 -36.7381774 87.00360464 -39 84.375 C-39.36784131 83.0507713 -39.71202981 81.71886088 -40 80.375 C-40.99 80.045 -41.98 79.715 -43 79.375 C-44.5703125 76.828125 -44.5703125 76.828125 -46.125 73.625 C-46.64320312 72.57828125 -47.16140625 71.5315625 -47.6953125 70.453125 C-50.42617532 64.01025105 -50.216248 57.643847 -50.25 50.75 C-50.270625 49.72003906 -50.29125 48.69007812 -50.3125 47.62890625 C-50.34872099 40.42998454 -49.2452826 34.21075103 -47 27.375 C-46.34 27.375 -45.68 27.375 -45 27.375 C-44.731875 26.405625 -44.46375 25.43625 -44.1875 24.4375 C-43.795625 23.426875 -43.40375 22.41625 -43 21.375 C-42.01 21.045 -41.02 20.715 -40 20.375 C-39.87625 19.7975 -39.7525 19.22 -39.625 18.625 C-38.68130309 15.22769113 -36.62860464 13.6368226 -34 11.375 C-32.6757713 11.00715869 -31.34386088 10.66297019 -30 10.375 C-29.67 9.385 -29.34 8.395 -29 7.375 C-25.9375 6.1875 -25.9375 6.1875 -23 5.375 C-23 4.715 -23 4.055 -23 3.375 C-15.21074248 0.85077457 -8.16972924 -0.09450844 0 0 Z M-13 10.375 C-13 11.035 -13 11.695 -13 12.375 C-14.093125 12.49875 -15.18625 12.6225 -16.3125 12.75 C-20.07381802 13.12964801 -20.07381802 13.12964801 -23 15.375 C-23 16.035 -23 16.695 -23 17.375 C-23.7425 17.6225 -24.485 17.87 -25.25 18.125 C-28.27018724 19.49781238 -29.89851841 20.82320092 -32 23.375 C-32.7872678 25.5131966 -32.7872678 25.5131966 -33 27.375 C-33.66 27.375 -34.32 27.375 -35 27.375 C-37.03435531 31.10465139 -38 33.04405042 -38 37.375 C-38.66 37.375 -39.32 37.375 -40 37.375 C-40.94660961 40.21482882 -41.12867774 41.99355329 -41.1328125 44.9375 C-41.13410156 45.81664062 -41.13539062 46.69578125 -41.13671875 47.6015625 C-41.13285156 48.51679687 -41.12898438 49.43203125 -41.125 50.375 C-41.12886719 51.29023437 -41.13273437 52.20546875 -41.13671875 53.1484375 C-41.13542969 54.02757812 -41.13414063 54.90671875 -41.1328125 55.8125 C-41.13168457 56.61558594 -41.13055664 57.41867188 -41.12939453 58.24609375 C-41.0804355 60.56384465 -41.0804355 60.56384465 -40 63.375 C-39.34 63.375 -38.68 63.375 -38 63.375 C-37.87625 64.468125 -37.7525 65.56125 -37.625 66.6875 C-37.24535199 70.44881802 -37.24535199 70.44881802 -35 73.375 C-34.34 73.375 -33.68 73.375 -33 73.375 C-32.7525 74.1175 -32.505 74.86 -32.25 75.625 C-30.87718762 78.64518724 -29.55179908 80.27351841 -27 82.375 C-24.8618034 83.1622678 -24.8618034 83.1622678 -23 83.375 C-23 84.035 -23 84.695 -23 85.375 C-19.27034861 87.40935531 -17.33094958 88.375 -13 88.375 C-13 89.035 -13 89.695 -13 90.375 C-10.16017118 91.32160961 -8.38144671 91.50367774 -5.4375 91.5078125 C-4.11878906 91.50974609 -4.11878906 91.50974609 -2.7734375 91.51171875 C-1.40058594 91.50591797 -1.40058594 91.50591797 0 91.5 C0.91523437 91.50386719 1.83046875 91.50773437 2.7734375 91.51171875 C3.65257812 91.51042969 4.53171875 91.50914063 5.4375 91.5078125 C6.24058594 91.50668457 7.04367188 91.50555664 7.87109375 91.50439453 C10.18884465 91.4554355 10.18884465 91.4554355 13 90.375 C13 89.715 13 89.055 13 88.375 C14.093125 88.25125 15.18625 88.1275 16.3125 88 C20.07381802 87.62035199 20.07381802 87.62035199 23 85.375 C23 84.715 23 84.055 23 83.375 C24.1446875 82.9728125 24.1446875 82.9728125 25.3125 82.5625 C29.1098541 80.88459935 30.50959935 79.4848541 32.1875 75.6875 C32.455625 74.924375 32.72375 74.16125 33 73.375 C33.66 73.375 34.32 73.375 35 73.375 C37.03435531 69.64534861 38 67.70594958 38 63.375 C38.66 63.375 39.32 63.375 40 63.375 C40.94660961 60.53517118 41.12867774 58.75644671 41.1328125 55.8125 C41.13410156 54.93335938 41.13539062 54.05421875 41.13671875 53.1484375 C41.13285156 52.23320313 41.12898438 51.31796875 41.125 50.375 C41.12886719 49.45976563 41.13273437 48.54453125 41.13671875 47.6015625 C41.13542969 46.72242188 41.13414063 45.84328125 41.1328125 44.9375 C41.13112061 43.73287109 41.13112061 43.73287109 41.12939453 42.50390625 C41.0804355 40.18615535 41.0804355 40.18615535 40 37.375 C39.34 37.375 38.68 37.375 38 37.375 C37.87625 36.281875 37.7525 35.18875 37.625 34.0625 C37.24535199 30.30118198 37.24535199 30.30118198 35 27.375 C34.34 27.375 33.68 27.375 33 27.375 C32.7525 26.6325 32.505 25.89 32.25 25.125 C30.87718762 22.10481276 29.55179908 20.47648159 27 18.375 C24.8618034 17.5877322 24.8618034 17.5877322 23 17.375 C23 16.715 23 16.055 23 15.375 C19.27034861 13.34064469 17.33094958 12.375 13 12.375 C13 11.715 13 11.055 13 10.375 C10.16017118 9.42839039 8.38144671 9.24632226 5.4375 9.2421875 C4.11878906 9.24025391 4.11878906 9.24025391 2.7734375 9.23828125 C1.85820313 9.24214844 0.94296875 9.24601562 0 9.25 C-0.91523437 9.24613281 -1.83046875 9.24226563 -2.7734375 9.23828125 C-3.65257812 9.23957031 -4.53171875 9.24085937 -5.4375 9.2421875 C-6.24058594 9.24331543 -7.04367188 9.24444336 -7.87109375 9.24560547 C-10.18884465 9.2945645 -10.18884465 9.2945645 -13 10.375 Z " fill="#776FDA" transform="translate(60,9.625)"/>
<path d="M0 0 C4.61733832 0.52131239 6.09440236 1.86228317 9.296875 5.02734375 C12.64061104 8.01518709 16.42858264 7.60232206 20.6875 7.625 C22.49154297 7.64626953 22.49154297 7.64626953 24.33203125 7.66796875 C27.85583425 7.43874672 30.59629528 6.70780979 33.875 5.4375 C33.875 4.7775 33.875 4.1175 33.875 3.4375 C36.45043228 0.75905043 37.79119093 0.44318197 41.5625 0.1875 C44.875 0.4375 44.875 0.4375 45.875 1.4375 C46.3414311 6.8014576 46.3414311 6.8014576 44.5 9.3125 C42.875 10.4375 42.875 10.4375 40.875 10.4375 C40.5346875 11.3965625 40.5346875 11.3965625 40.1875 12.375 C38.875 14.4375 38.875 14.4375 36.25 15.1875 C35.46625 15.27 34.6825 15.3525 33.875 15.4375 C33.875 16.0975 33.875 16.7575 33.875 17.4375 C31.07892377 18.22841257 28.59024759 18.56568608 25.6875 18.5703125 C24.90632813 18.57160156 24.12515625 18.57289062 23.3203125 18.57421875 C22.51335938 18.57035156 21.70640625 18.56648438 20.875 18.5625 C20.06804688 18.56636719 19.26109375 18.57023437 18.4296875 18.57421875 C17.64851563 18.57292969 16.86734375 18.57164063 16.0625 18.5703125 C15.35480469 18.56918457 14.64710937 18.56805664 13.91796875 18.56689453 C11.79787267 18.43261502 9.91542437 18.01466498 7.875 17.4375 C7.875 16.7775 7.875 16.1175 7.875 15.4375 C6.905625 15.169375 5.93625 14.90125 4.9375 14.625 C3.4215625 14.0371875 3.4215625 14.0371875 1.875 13.4375 C1.545 12.4475 1.215 11.4575 0.875 10.4375 C-1.09172915 9.2874169 -1.09172915 9.2874169 -3.125 8.4375 C-4.125 7.4375 -4.125 7.4375 -4.25 4.4375 C-4.07909972 0.33589322 -4.08109919 0.57135389 0 0 Z " fill="#766EDA" transform="translate(39.125,69.5625)"/>
<path d="M0 0 C0.680625 -0.00515625 1.36125 -0.0103125 2.0625 -0.015625 C4 0.25 4 0.25 7 2.25 C7.3984375 4.34375 7.3984375 4.34375 7.375 6.75 C7.38273437 7.5440625 7.39046875 8.338125 7.3984375 9.15625 C7.26695313 9.8471875 7.13546875 10.538125 7 11.25 C4.00261059 13.24825961 3.36652492 13.52550398 0 13.5 C-0.680625 13.50515625 -1.36125 13.5103125 -2.0625 13.515625 C-4 13.25 -4 13.25 -7 11.25 C-7.3984375 9.15625 -7.3984375 9.15625 -7.375 6.75 C-7.38273437 5.9559375 -7.39046875 5.161875 -7.3984375 4.34375 C-7.26695313 3.6528125 -7.13546875 2.961875 -7 2.25 C-4.00261059 0.25174039 -3.36652492 -0.02550398 0 0 Z " fill="#776FDB" transform="translate(75,40.75)"/>
<path d="M0 0 C0.680625 -0.00515625 1.36125 -0.0103125 2.0625 -0.015625 C4 0.25 4 0.25 7 2.25 C7.3984375 4.34375 7.3984375 4.34375 7.375 6.75 C7.38273437 7.5440625 7.39046875 8.338125 7.3984375 9.15625 C7.26695313 9.8471875 7.13546875 10.538125 7 11.25 C4.00261059 13.24825961 3.36652492 13.52550398 0 13.5 C-0.680625 13.50515625 -1.36125 13.5103125 -2.0625 13.515625 C-4 13.25 -4 13.25 -7 11.25 C-7.3984375 9.15625 -7.3984375 9.15625 -7.375 6.75 C-7.38273437 5.9559375 -7.39046875 5.161875 -7.3984375 4.34375 C-7.26695313 3.6528125 -7.13546875 2.961875 -7 2.25 C-4.00261059 0.25174039 -3.36652492 -0.02550398 0 0 Z " fill="#776FDB" transform="translate(45,40.75)"/>
</svg>
