<svg width="17" height="18" viewBox="0 0 17 18" fill="none" xmlns="http://www.w3.org/2000/svg">
<path d="M12.0781 1C10.6566 1 9.41202 1.74017 8.63621 2.9913C7.86039 1.74017 6.61579 1 5.19427 1C4.06272 1.00154 2.97788 1.54651 2.17775 2.51534C1.37762 3.48418 0.927545 4.79775 0.92627 6.16789C0.92627 12.0026 8.07104 16.7254 8.37531 16.9204C8.4555 16.9727 8.54514 17 8.63621 17C8.72727 17 8.81691 16.9727 8.89711 16.9204C9.20137 16.7254 16.3461 12.0026 16.3461 6.16789C16.3449 4.79775 15.8948 3.48418 15.0947 2.51534C14.2945 1.54651 13.2097 1.00154 12.0781 1ZM8.63621 15.5701C7.37921 14.6832 2.02769 10.6431 2.02769 6.16789C2.02878 5.15139 2.36275 4.1769 2.95637 3.45813C3.54998 2.73936 4.35478 2.33497 5.19427 2.33365C6.53318 2.33365 7.65732 3.19718 8.1268 4.58418C8.16829 4.70648 8.23887 4.81109 8.32958 4.88471C8.42028 4.95832 8.52701 4.99763 8.63621 4.99763C8.7454 4.99763 8.85213 4.95832 8.94284 4.88471C9.03354 4.81109 9.10412 4.70648 9.14561 4.58418C9.61509 3.19468 10.7392 2.33365 12.0781 2.33365C12.9176 2.33497 13.7224 2.73936 14.316 3.45813C14.9097 4.1769 15.2436 5.15139 15.2447 6.16789C15.2447 10.6364 9.89183 14.6824 8.63621 15.5701Z" fill="black" stroke="black" stroke-width="0.3"/>
</svg>
