<svg width="23" height="22" viewBox="0 0 23 22" fill="none" xmlns="http://www.w3.org/2000/svg">
<path fill-rule="evenodd" clip-rule="evenodd" d="M11.157 2.52226C11.3632 2.31604 11.643 2.2002 11.9347 2.2002C12.2263 2.2002 12.5061 2.31604 12.7124 2.52226L20.4124 10.2223C20.5661 10.3761 20.6709 10.5721 20.7133 10.7854C20.7557 10.9988 20.7339 11.2199 20.6507 11.4209C20.5675 11.6218 20.4265 11.7936 20.2457 11.9145C20.0648 12.0354 19.8522 12.0999 19.6347 12.1H18.5347V18.7C18.5347 18.9917 18.4188 19.2715 18.2125 19.4778C18.0062 19.6841 17.7264 19.8 17.4347 19.8H15.2347C14.9429 19.8 14.6631 19.6841 14.4568 19.4778C14.2505 19.2715 14.1347 18.9917 14.1347 18.7V15.4C14.1347 15.1082 14.0188 14.8284 13.8125 14.6221C13.6062 14.4159 13.3264 14.3 13.0347 14.3H10.8347C10.5429 14.3 10.2631 14.4159 10.0568 14.6221C9.85055 14.8284 9.73465 15.1082 9.73465 15.4V18.7C9.73465 18.9917 9.61876 19.2715 9.41247 19.4778C9.20618 19.6841 8.92639 19.8 8.63465 19.8H6.43465C6.14291 19.8 5.86313 19.6841 5.65684 19.4778C5.45055 19.2715 5.33465 18.9917 5.33465 18.7V12.1H4.23465C4.01713 12.0999 3.8045 12.0354 3.62365 11.9145C3.4428 11.7936 3.30184 11.6218 3.21861 11.4209C3.13537 11.2199 3.11359 10.9988 3.15601 10.7854C3.19844 10.5721 3.30316 10.3761 3.45695 10.2223L11.157 2.52226Z" fill="#3F3D3D"/>
</svg>
