<svg width="30" height="30" viewBox="0 0 30 30" fill="none" xmlns="http://www.w3.org/2000/svg">
<path d="M27.5 26.25H2.5V23.75H3.75V5C3.75 4.66848 3.8817 4.35054 4.11612 4.11612C4.35054 3.8817 4.66848 3.75 5 3.75H22.5C22.8315 3.75 23.1495 3.8817 23.3839 4.11612C23.6183 4.35054 23.75 4.66848 23.75 5V11.25H26.25V23.75H27.5V26.25ZM21.25 23.75H23.75V13.75H16.25V23.75H18.75V16.25H21.25V23.75ZM21.25 11.25V6.25H6.25V23.75H13.75V11.25H21.25ZM8.75 13.75H11.25V16.25H8.75V13.75ZM8.75 18.75H11.25V21.25H8.75V18.75ZM8.75 8.75H11.25V11.25H8.75V8.75Z" fill="white"/>
</svg>
