<svg width="24" height="24" viewBox="0 0 24 24" fill="none" xmlns="http://www.w3.org/2000/svg">
<path fill-rule="evenodd" clip-rule="evenodd" d="M1 12C1 5.92487 5.92487 1 12 1C12.2652 1 12.5196 1.10536 12.7071 1.29289L22.7071 11.2929C22.8946 11.4804 23 11.7348 23 12C23 18.0751 18.0751 23 12 23C5.92487 23 1 18.0751 1 12ZM10.6867 3.09513C6.33863 3.73084 3 7.47553 3 12C3 16.9706 7.02943 21 12 21C16.5569 21 20.3227 17.6134 20.918 13.2198C20.3726 13.2892 19.6898 13.3394 18.9324 13.3118C17.0657 13.244 14.6395 12.6968 12.7672 10.6805C10.9164 8.68732 10.4967 6.40645 10.5315 4.6675C10.5433 4.07639 10.6073 3.54265 10.6867 3.09513ZM12.5776 3.99177L19.8912 11.3054C19.6145 11.32 19.3169 11.3245 19.0051 11.3132C17.4343 11.256 15.6105 10.8032 14.2328 9.31955C12.8336 7.81268 12.5033 6.09355 12.531 4.7075C12.5361 4.45508 12.5531 4.21521 12.5776 3.99177Z" fill="#2F80ED"/>
</svg>
