<svg width="30" height="30" viewBox="0 0 30 30" fill="none" xmlns="http://www.w3.org/2000/svg">
<path d="M15 5C17.7625 5 20 7.2375 20 10C20 12.7625 17.7625 15 15 15C12.2375 15 10 12.7625 10 10C10 7.2375 12.2375 5 15 5ZM20 18.175C20 19.5 19.65 22.5875 17.2625 26.0375L16.25 20L17.425 17.65C16.65 17.5625 15.8375 17.5 15 17.5C14.1625 17.5 13.35 17.5625 12.575 17.65L13.75 20L12.7375 26.0375C10.35 22.5875 10 19.5 10 18.175C7.0125 19.05 5 20.625 5 22.5V27.5H25V22.5C25 20.625 23 19.05 20 18.175Z" fill="white"/>
</svg>
