<svg width="54" height="54" viewBox="0 0 54 54" fill="none" xmlns="http://www.w3.org/2000/svg">
<rect x="1" y="1" width="52" height="52" rx="12.8462" fill="white" stroke="#7870DB" stroke-width="2"/>
<mask id="path-2-outside-1_368_5202" maskUnits="userSpaceOnUse" x="10.401" y="6.68457" width="30" height="39" fill="black">
<rect fill="white" x="10.401" y="6.68457" width="30" height="39"/>
<path d="M28.9259 16.4285C28.8587 17.0331 28.8251 17.6545 28.8251 18.2926C28.8251 19.5018 28.758 20.5934 28.6236 21.5674C28.4893 22.5414 28.4053 23.2132 28.3717 23.5826C28.3381 23.9185 28.2878 24.2544 28.2206 24.5902V24.9429C28.2206 25.5475 28.0862 26.152 27.8175 26.7566L27.6664 29.0238L27.4649 33.8099V36.329C27.4649 37.6053 27.3977 38.2938 27.2633 38.3946L27.3137 39.7045V40.2587L27.2633 40.8632C27.2633 40.9976 27.2298 41.0648 27.1626 41.0648C27.2298 41.4678 27.0618 41.9044 26.6588 42.3747C26.2893 42.8113 25.8191 43.0968 25.2481 43.2311L24.3413 43.3823C24.2069 43.3823 24.0222 43.3991 23.7871 43.4327C23.552 43.4327 23.3504 43.3991 23.1825 43.3319C23.0146 43.2647 22.8466 43.1808 22.6787 43.08C22.3428 42.8785 22.1077 42.4922 21.9734 41.9212C21.8726 41.7533 21.6711 40.7289 21.3688 38.848C21.3688 38.445 21.3352 37.9412 21.268 37.3366L21.4192 36.1274V35.1702C21.4192 34.5656 21.4863 34.1458 21.6207 33.9107C21.4863 33.7092 21.5703 33.2725 21.8726 32.6008C21.6375 32.2985 21.6543 31.6268 21.923 30.5856C21.7886 30.1489 21.7886 29.8634 21.923 29.7291C21.9901 29.5276 22.0237 29.0573 22.0237 28.3184L22.0741 27.8146C22.0741 26.8406 22.1749 25.9505 22.3764 25.1444C22.3092 25.0437 22.3092 24.775 22.3764 24.3383C22.4436 23.9017 22.494 23.3811 22.5275 22.7765V22.4239C22.5611 21.9201 22.5779 21.3827 22.5779 20.8117L22.6283 20.3583C22.6283 20.1567 22.6619 19.7537 22.7291 19.1491C22.8298 18.5445 22.9138 17.9064 22.981 17.2346H22.8802C19.32 18.2087 17.1368 18.6957 16.3307 18.6957L15.4742 18.7461C14.9704 18.7461 14.4498 18.6621 13.9124 18.4942C13.6437 18.3598 13.4422 18.0071 13.3079 17.4362C13.3079 16.3278 13.543 15.5217 14.0132 15.0179C14.517 14.5141 15.4406 14.0439 16.7841 13.6072C17.12 13.5736 19.2024 12.8683 23.0314 11.4912L25.1977 10.9874C25.6008 10.8531 26.2389 10.7859 27.1122 10.7859C27.9855 10.7859 28.7076 10.6851 29.2786 10.4836C29.8831 10.2485 30.5381 10.0806 31.2434 9.9798C31.9488 9.84546 32.6877 9.71111 33.4602 9.57676C33.8296 9.44241 34.5014 9.476 35.4754 9.67752C35.8449 9.67752 36.4326 10.0638 37.2387 10.8363L37.541 11.5416C37.541 11.7431 37.5914 11.8943 37.6922 11.995C37.8265 12.9019 37.625 13.4897 37.0876 13.7584C36.8861 13.8591 36.5334 13.9935 36.0296 14.1614C35.3579 14.1614 33.6785 14.4973 30.9915 15.169C30.8572 15.169 30.1854 15.2698 28.9763 15.4713L28.9259 16.1263V16.4285Z"/>
</mask>
<path d="M28.9259 16.4285C28.8587 17.0331 28.8251 17.6545 28.8251 18.2926C28.8251 19.5018 28.758 20.5934 28.6236 21.5674C28.4893 22.5414 28.4053 23.2132 28.3717 23.5826C28.3381 23.9185 28.2878 24.2544 28.2206 24.5902V24.9429C28.2206 25.5475 28.0862 26.152 27.8175 26.7566L27.6664 29.0238L27.4649 33.8099V36.329C27.4649 37.6053 27.3977 38.2938 27.2633 38.3946L27.3137 39.7045V40.2587L27.2633 40.8632C27.2633 40.9976 27.2298 41.0648 27.1626 41.0648C27.2298 41.4678 27.0618 41.9044 26.6588 42.3747C26.2893 42.8113 25.8191 43.0968 25.2481 43.2311L24.3413 43.3823C24.2069 43.3823 24.0222 43.3991 23.7871 43.4327C23.552 43.4327 23.3504 43.3991 23.1825 43.3319C23.0146 43.2647 22.8466 43.1808 22.6787 43.08C22.3428 42.8785 22.1077 42.4922 21.9734 41.9212C21.8726 41.7533 21.6711 40.7289 21.3688 38.848C21.3688 38.445 21.3352 37.9412 21.268 37.3366L21.4192 36.1274V35.1702C21.4192 34.5656 21.4863 34.1458 21.6207 33.9107C21.4863 33.7092 21.5703 33.2725 21.8726 32.6008C21.6375 32.2985 21.6543 31.6268 21.923 30.5856C21.7886 30.1489 21.7886 29.8634 21.923 29.7291C21.9901 29.5276 22.0237 29.0573 22.0237 28.3184L22.0741 27.8146C22.0741 26.8406 22.1749 25.9505 22.3764 25.1444C22.3092 25.0437 22.3092 24.775 22.3764 24.3383C22.4436 23.9017 22.494 23.3811 22.5275 22.7765V22.4239C22.5611 21.9201 22.5779 21.3827 22.5779 20.8117L22.6283 20.3583C22.6283 20.1567 22.6619 19.7537 22.7291 19.1491C22.8298 18.5445 22.9138 17.9064 22.981 17.2346H22.8802C19.32 18.2087 17.1368 18.6957 16.3307 18.6957L15.4742 18.7461C14.9704 18.7461 14.4498 18.6621 13.9124 18.4942C13.6437 18.3598 13.4422 18.0071 13.3079 17.4362C13.3079 16.3278 13.543 15.5217 14.0132 15.0179C14.517 14.5141 15.4406 14.0439 16.7841 13.6072C17.12 13.5736 19.2024 12.8683 23.0314 11.4912L25.1977 10.9874C25.6008 10.8531 26.2389 10.7859 27.1122 10.7859C27.9855 10.7859 28.7076 10.6851 29.2786 10.4836C29.8831 10.2485 30.5381 10.0806 31.2434 9.9798C31.9488 9.84546 32.6877 9.71111 33.4602 9.57676C33.8296 9.44241 34.5014 9.476 35.4754 9.67752C35.8449 9.67752 36.4326 10.0638 37.2387 10.8363L37.541 11.5416C37.541 11.7431 37.5914 11.8943 37.6922 11.995C37.8265 12.9019 37.625 13.4897 37.0876 13.7584C36.8861 13.8591 36.5334 13.9935 36.0296 14.1614C35.3579 14.1614 33.6785 14.4973 30.9915 15.169C30.8572 15.169 30.1854 15.2698 28.9763 15.4713L28.9259 16.1263V16.4285Z" fill="#7870DB"/>
<path d="M28.9259 16.4285C28.8587 17.0331 28.8251 17.6545 28.8251 18.2926C28.8251 19.5018 28.758 20.5934 28.6236 21.5674C28.4893 22.5414 28.4053 23.2132 28.3717 23.5826C28.3381 23.9185 28.2878 24.2544 28.2206 24.5902V24.9429C28.2206 25.5475 28.0862 26.152 27.8175 26.7566L27.6664 29.0238L27.4649 33.8099V36.329C27.4649 37.6053 27.3977 38.2938 27.2633 38.3946L27.3137 39.7045V40.2587L27.2633 40.8632C27.2633 40.9976 27.2298 41.0648 27.1626 41.0648C27.2298 41.4678 27.0618 41.9044 26.6588 42.3747C26.2893 42.8113 25.8191 43.0968 25.2481 43.2311L24.3413 43.3823C24.2069 43.3823 24.0222 43.3991 23.7871 43.4327C23.552 43.4327 23.3504 43.3991 23.1825 43.3319C23.0146 43.2647 22.8466 43.1808 22.6787 43.08C22.3428 42.8785 22.1077 42.4922 21.9734 41.9212C21.8726 41.7533 21.6711 40.7289 21.3688 38.848C21.3688 38.445 21.3352 37.9412 21.268 37.3366L21.4192 36.1274V35.1702C21.4192 34.5656 21.4863 34.1458 21.6207 33.9107C21.4863 33.7092 21.5703 33.2725 21.8726 32.6008C21.6375 32.2985 21.6543 31.6268 21.923 30.5856C21.7886 30.1489 21.7886 29.8634 21.923 29.7291C21.9901 29.5276 22.0237 29.0573 22.0237 28.3184L22.0741 27.8146C22.0741 26.8406 22.1749 25.9505 22.3764 25.1444C22.3092 25.0437 22.3092 24.775 22.3764 24.3383C22.4436 23.9017 22.494 23.3811 22.5275 22.7765V22.4239C22.5611 21.9201 22.5779 21.3827 22.5779 20.8117L22.6283 20.3583C22.6283 20.1567 22.6619 19.7537 22.7291 19.1491C22.8298 18.5445 22.9138 17.9064 22.981 17.2346H22.8802C19.32 18.2087 17.1368 18.6957 16.3307 18.6957L15.4742 18.7461C14.9704 18.7461 14.4498 18.6621 13.9124 18.4942C13.6437 18.3598 13.4422 18.0071 13.3079 17.4362C13.3079 16.3278 13.543 15.5217 14.0132 15.0179C14.517 14.5141 15.4406 14.0439 16.7841 13.6072C17.12 13.5736 19.2024 12.8683 23.0314 11.4912L25.1977 10.9874C25.6008 10.8531 26.2389 10.7859 27.1122 10.7859C27.9855 10.7859 28.7076 10.6851 29.2786 10.4836C29.8831 10.2485 30.5381 10.0806 31.2434 9.9798C31.9488 9.84546 32.6877 9.71111 33.4602 9.57676C33.8296 9.44241 34.5014 9.476 35.4754 9.67752C35.8449 9.67752 36.4326 10.0638 37.2387 10.8363L37.541 11.5416C37.541 11.7431 37.5914 11.8943 37.6922 11.995C37.8265 12.9019 37.625 13.4897 37.0876 13.7584C36.8861 13.8591 36.5334 13.9935 36.0296 14.1614C35.3579 14.1614 33.6785 14.4973 30.9915 15.169C30.8572 15.169 30.1854 15.2698 28.9763 15.4713L28.9259 16.1263V16.4285Z" fill="url(#paint0_linear_368_5202)"/>
<path d="M28.9259 16.4285L30.9137 16.6494L30.9259 16.5393V16.4285H28.9259ZM28.6236 21.5674L30.6049 21.8407V21.8407L28.6236 21.5674ZM28.3717 23.5826L30.3618 23.7816L30.3627 23.7727L30.3635 23.7637L28.3717 23.5826ZM28.2206 24.5902L26.2594 24.198L26.2206 24.3922V24.5902H28.2206ZM27.8175 26.7566L25.9899 25.9443L25.8456 26.269L25.822 26.6236L27.8175 26.7566ZM27.6664 29.0238L25.6708 28.8907L25.6692 28.9151L25.6682 28.9396L27.6664 29.0238ZM27.4649 33.8099L25.4666 33.7258L25.4649 33.7678V33.8099H27.4649ZM27.2633 38.3946L26.0633 36.7946L25.2245 37.4237L25.2648 38.4715L27.2633 38.3946ZM27.3137 39.7045H29.3137V39.666L29.3122 39.6276L27.3137 39.7045ZM27.3137 40.2587L29.3068 40.4248L29.3137 40.3419V40.2587H27.3137ZM27.2633 40.8632L25.2703 40.6972L25.2633 40.7801V40.8632H27.2633ZM27.1626 41.0648V39.0648H24.8017L25.1898 41.3936L27.1626 41.0648ZM26.6588 42.3747L25.1402 41.0731L25.132 41.0828L26.6588 42.3747ZM25.2481 43.2311L25.5769 45.2039L25.642 45.1931L25.7062 45.178L25.2481 43.2311ZM24.3413 43.3823V45.3823H24.5068L24.6701 45.3551L24.3413 43.3823ZM23.7871 43.4327V45.4327H23.9292L24.0699 45.4126L23.7871 43.4327ZM23.1825 43.3319L23.9253 41.475L23.9253 41.4749L23.1825 43.3319ZM22.6787 43.08L23.7077 41.365L23.7077 41.365L22.6787 43.08ZM21.9734 41.9212L23.9202 41.4632L23.8488 41.1596L23.6883 40.8923L21.9734 41.9212ZM21.3688 38.848H19.3688V39.0077L19.3941 39.1654L21.3688 38.848ZM21.268 37.3366L19.2835 37.0885L19.2542 37.3228L19.2803 37.5574L21.268 37.3366ZM21.4192 36.1274L23.4037 36.3755L23.4192 36.252V36.1274H21.4192ZM21.6207 33.9107L23.3572 34.903L23.9704 33.8298L23.2848 32.8013L21.6207 33.9107ZM21.8726 32.6008L23.6964 33.4215L24.1906 32.3234L23.4513 31.3729L21.8726 32.6008ZM21.923 30.5856L23.8595 31.0853L24.0008 30.5378L23.8345 29.9974L21.923 30.5856ZM21.923 29.7291L23.3372 31.1433L23.671 30.8094L23.8203 30.3615L21.923 29.7291ZM22.0237 28.3184L20.0337 28.1194L20.0237 28.2187V28.3184H22.0237ZM22.0741 27.8146L24.0642 28.0136L24.0741 27.9144V27.8146H22.0741ZM22.3764 25.1444L24.3167 25.6295L24.5313 24.7712L24.0405 24.035L22.3764 25.1444ZM22.3764 24.3383L24.3531 24.6425L24.3531 24.6425L22.3764 24.3383ZM22.5275 22.7765L24.5245 22.8875L24.5275 22.832V22.7765H22.5275ZM22.5275 22.4239L20.532 22.2908L20.5275 22.3573V22.4239H22.5275ZM22.5779 20.8117L20.5902 20.5908L20.5779 20.7009V20.8117H22.5779ZM22.6283 20.3583L24.6161 20.5791L24.6283 20.469V20.3583H22.6283ZM22.7291 19.1491L20.7563 18.8203L20.7473 18.8741L20.7413 18.9282L22.7291 19.1491ZM22.981 17.2346L24.971 17.4336L25.1909 15.2346H22.981V17.2346ZM22.8802 17.2346V15.2346H22.6116L22.3524 15.3055L22.8802 17.2346ZM16.3307 18.6957V16.6957H16.2719L16.2133 16.6991L16.3307 18.6957ZM15.4742 18.7461V20.7461H15.533L15.5917 20.7426L15.4742 18.7461ZM13.9124 18.4942L13.018 20.283L13.1621 20.3551L13.3159 20.4031L13.9124 18.4942ZM13.3079 17.4362H11.3079V17.6683L11.361 17.8942L13.3079 17.4362ZM14.0132 15.0179L12.599 13.6037L12.5746 13.628L12.5511 13.6532L14.0132 15.0179ZM16.7841 13.6072L16.5851 11.6172L16.3708 11.6386L16.166 11.7052L16.7841 13.6072ZM23.0314 11.4912L22.5783 9.54321L22.4645 9.56969L22.3545 9.60924L23.0314 11.4912ZM25.1977 10.9874L25.6508 12.9354L25.7417 12.9143L25.8302 12.8848L25.1977 10.9874ZM29.2786 10.4836L29.9442 12.3696L29.974 12.3591L30.0035 12.3476L29.2786 10.4836ZM31.2434 9.9798L31.5263 11.9597L31.5721 11.9532L31.6177 11.9445L31.2434 9.9798ZM33.4602 9.57676L33.8029 11.5472L33.9773 11.5168L34.1437 11.4563L33.4602 9.57676ZM35.4754 9.67752L35.0702 11.636L35.2707 11.6775H35.4754V9.67752ZM37.2387 10.8363L39.077 10.0484L38.9166 9.6741L38.6226 9.3923L37.2387 10.8363ZM37.541 11.5416H39.541V11.1311L39.3793 10.7538L37.541 11.5416ZM37.6922 11.995L39.6706 11.7019L39.5737 11.0482L39.1064 10.5808L37.6922 11.995ZM37.0876 13.7584L36.1932 11.9695L36.1932 11.9695L37.0876 13.7584ZM36.0296 14.1614V16.1614H36.3542L36.6621 16.0588L36.0296 14.1614ZM30.9915 15.169V17.169H31.2377L31.4766 17.1093L30.9915 15.169ZM28.9763 15.4713L28.6475 13.4985L27.1023 13.7561L26.9822 15.3179L28.9763 15.4713ZM28.9259 16.1263L26.9318 15.9729L26.9259 16.0495V16.1263H28.9259ZM26.9381 16.2077C26.8624 16.8891 26.8251 17.5843 26.8251 18.2926H30.8251C30.8251 17.7247 30.855 17.1772 30.9137 16.6494L26.9381 16.2077ZM26.8251 18.2926C26.8251 19.4302 26.7618 20.4284 26.6424 21.2941L30.6049 21.8407C30.7542 20.7583 30.8251 19.5733 30.8251 18.2926H26.8251ZM26.6424 21.2941C26.5085 22.2648 26.4183 22.9797 26.3799 23.4016L30.3635 23.7637C30.3923 23.4466 30.4701 22.818 30.6049 21.8407L26.6424 21.2941ZM26.3816 23.3836C26.3546 23.6537 26.314 23.9251 26.2594 24.198L30.1817 24.9825C30.2615 24.5836 30.3216 24.1833 30.3618 23.7816L26.3816 23.3836ZM26.2206 24.5902V24.9429H30.2206V24.5902H26.2206ZM26.2206 24.9429C26.2206 25.2422 26.1558 25.5711 25.9899 25.9443L29.6452 27.5689C30.0167 26.7329 30.2206 25.8528 30.2206 24.9429H26.2206ZM25.822 26.6236L25.6708 28.8907L29.662 29.1568L29.8131 26.8897L25.822 26.6236ZM25.6682 28.9396L25.4666 33.7258L29.4631 33.8941L29.6646 29.1079L25.6682 28.9396ZM25.4649 33.8099V36.329H29.4649V33.8099H25.4649ZM25.4649 36.329C25.4649 36.9466 25.448 37.3614 25.4239 37.6084C25.4112 37.7387 25.4023 37.7587 25.4137 37.714C25.4192 37.6924 25.4436 37.5985 25.5037 37.4718C25.5352 37.4055 25.587 37.3077 25.6669 37.1971C25.7457 37.0881 25.8729 36.9374 26.0633 36.7946L28.4633 39.9946C28.8542 39.7015 29.0418 39.3461 29.1174 39.1867C29.207 38.9981 29.2586 38.8238 29.2893 38.7036C29.3511 38.4615 29.3842 38.2108 29.405 37.9968C29.4481 37.5553 29.4649 36.9877 29.4649 36.329H25.4649ZM25.2648 38.4715L25.3152 39.7814L29.3122 39.6276L29.2619 38.3177L25.2648 38.4715ZM25.3137 39.7045V40.2587H29.3137V39.7045H25.3137ZM25.3206 40.0926L25.2703 40.6972L29.2564 41.0293L29.3068 40.4248L25.3206 40.0926ZM25.2633 40.8632C25.2633 40.8283 25.2571 40.5043 25.4493 40.12C25.5595 39.8995 25.7584 39.614 26.0973 39.3881C26.4487 39.1538 26.8294 39.0648 27.1626 39.0648V43.0648C27.5293 43.0648 27.9395 42.9673 28.3161 42.7163C28.6801 42.4736 28.9 42.1629 29.027 41.9088C29.2528 41.4573 29.2633 41.0326 29.2633 40.8632H25.2633ZM25.1898 41.3936C25.1743 41.3004 25.1739 41.2122 25.1831 41.1351C25.1922 41.0595 25.2092 41.0056 25.2203 40.9766C25.24 40.9255 25.2385 40.9584 25.1403 41.0731L28.1773 43.6763C28.7644 42.9913 29.3413 41.9713 29.1354 40.736L25.1898 41.3936ZM25.132 41.0828C25.0469 41.1834 24.9552 41.2454 24.79 41.2843L25.7062 45.178C26.6829 44.9482 27.5317 44.4392 28.1855 43.6666L25.132 41.0828ZM24.9193 41.2584L24.0125 41.4095L24.6701 45.3551L25.5769 45.2039L24.9193 41.2584ZM24.3413 41.3823C24.0669 41.3823 23.7736 41.4143 23.5042 41.4528L24.0699 45.4126C24.1625 45.3993 24.2325 45.3913 24.283 45.3867C24.336 45.3819 24.3523 45.3823 24.3413 45.3823V41.3823ZM23.7871 41.4327C23.7636 41.4327 23.7657 41.4309 23.7884 41.4347C23.8115 41.4385 23.8599 41.4488 23.9253 41.475L22.4397 45.1889C22.9031 45.3742 23.3701 45.4327 23.7871 45.4327V41.4327ZM23.9253 41.4749C23.8641 41.4505 23.7916 41.4154 23.7077 41.365L21.6497 44.795C21.9016 44.9462 22.165 45.079 22.4397 45.1889L23.9253 41.4749ZM23.7077 41.365C23.7789 41.4078 23.8365 41.4556 23.8802 41.5006C23.9232 41.5449 23.9478 41.5811 23.9588 41.5993C23.978 41.6307 23.9526 41.601 23.9202 41.4632L20.0265 42.3793C20.2234 43.2163 20.6633 44.2031 21.6497 44.795L23.7077 41.365ZM23.6883 40.8923C23.7523 40.9989 23.7888 41.0846 23.8023 41.1175C23.8188 41.1574 23.8279 41.1847 23.8303 41.1919C23.8347 41.2052 23.8303 41.1934 23.8176 41.1432C23.7926 41.0448 23.7565 40.8823 23.709 40.6409C23.615 40.1629 23.4934 39.4635 23.3434 38.5307L19.3941 39.1654C19.5465 40.1134 19.6768 40.8666 19.7843 41.413C19.8375 41.6838 19.8896 41.9265 19.9402 42.1262C19.9653 42.2251 19.9955 42.3355 20.0314 42.4443C20.0557 42.5179 20.1257 42.729 20.2584 42.9502L23.6883 40.8923ZM23.3688 38.848C23.3688 38.3442 23.3275 37.7608 23.2558 37.1157L19.2803 37.5574C19.3429 38.1215 19.3688 38.5457 19.3688 38.848H23.3688ZM23.2526 37.5847L23.4037 36.3755L19.4346 35.8794L19.2835 37.0885L23.2526 37.5847ZM23.4192 36.1274V35.1702H19.4192V36.1274H23.4192ZM23.4192 35.1702C23.4192 34.9335 23.4329 34.7899 23.4444 34.7179C23.4498 34.6841 23.4519 34.6844 23.4441 34.7098C23.4368 34.7335 23.4129 34.8055 23.3572 34.903L19.8842 32.9184C19.4655 33.6512 19.4192 34.5484 19.4192 35.1702H23.4192ZM23.2848 32.8013C23.4918 33.1118 23.5424 33.4034 23.5547 33.5581C23.5668 33.7114 23.5477 33.8056 23.5469 33.8098C23.5467 33.8109 23.5733 33.6952 23.6964 33.4215L20.0488 31.7801C19.8696 32.1782 19.7031 32.6167 19.6189 33.0544C19.5526 33.3993 19.4345 34.2369 19.9566 35.0201L23.2848 32.8013ZM23.4513 31.3729C23.6198 31.5895 23.6766 31.7851 23.6951 31.8674C23.7135 31.9497 23.7068 31.9769 23.7082 31.9203C23.7095 31.8681 23.717 31.773 23.7415 31.626C23.7656 31.481 23.8036 31.3019 23.8595 31.0853L19.9864 30.0858C19.8339 30.677 19.7232 31.27 19.7095 31.8203C19.6974 32.3046 19.7466 33.125 20.2939 33.8287L23.4513 31.3729ZM23.8345 29.9974C23.7953 29.8699 23.8222 29.9046 23.8222 30.044C23.8222 30.1684 23.7973 30.6832 23.3372 31.1433L20.5088 28.3149C19.9143 28.9094 19.8222 29.6341 19.8222 30.044C19.8222 30.4688 19.9163 30.8646 20.0114 31.1737L23.8345 29.9974ZM23.8203 30.3615C23.9396 30.0037 23.9756 29.6178 23.9935 29.3678C24.015 29.0666 24.0237 28.7121 24.0237 28.3184H20.0237C20.0237 28.6637 20.0157 28.9138 20.0036 29.0828C19.9976 29.1669 19.9918 29.2134 19.9892 29.2309C19.9849 29.2597 19.991 29.2005 20.0256 29.0966L23.8203 30.3615ZM24.0138 28.5174L24.0642 28.0136L20.084 27.6156L20.0337 28.1194L24.0138 28.5174ZM24.0741 27.8146C24.0741 26.9768 24.1609 26.2525 24.3167 25.6295L20.4361 24.6594C20.1888 25.6485 20.0741 26.7043 20.0741 27.8146H24.0741ZM24.0405 24.035C24.1437 24.1899 24.2045 24.3316 24.2403 24.4331C24.2767 24.536 24.2959 24.6218 24.3064 24.6796C24.3264 24.7898 24.326 24.8611 24.326 24.8673C24.326 24.8785 24.3265 24.8154 24.3531 24.6425L20.3997 24.0342C20.3591 24.2979 20.326 24.5874 20.326 24.8673C20.326 25.0079 20.334 25.1925 20.3709 25.3951C20.404 25.5775 20.4839 25.9113 20.7123 26.2538L24.0405 24.035ZM24.3531 24.6425C24.433 24.1233 24.4885 23.5349 24.5245 22.8875L20.5306 22.6656C20.4994 23.2273 20.4541 23.6801 20.3997 24.0342L24.3531 24.6425ZM24.5275 22.7765V22.4239H20.5275V22.7765H24.5275ZM24.5231 22.5569C24.56 22.0035 24.5779 21.4214 24.5779 20.8117H20.5779C20.5779 21.3439 20.5623 21.8366 20.532 22.2908L24.5231 22.5569ZM24.5657 21.0325L24.6161 20.5791L20.6405 20.1374L20.5902 20.5908L24.5657 21.0325ZM24.6283 20.3583C24.6283 20.36 24.6283 20.3544 24.6288 20.3399C24.6292 20.3257 24.6301 20.3061 24.6315 20.2803C24.6344 20.228 24.6393 20.159 24.6466 20.0709C24.6613 19.8943 24.6844 19.6621 24.7168 19.37L20.7413 18.9282C20.6762 19.5138 20.6283 20.0273 20.6283 20.3583H24.6283ZM24.7019 19.4779C24.8105 18.8262 24.9 18.1445 24.971 17.4336L20.9909 17.0356C20.9276 17.6682 20.8492 18.2629 20.7563 18.8203L24.7019 19.4779ZM22.981 15.2346H22.8802V19.2346H22.981V15.2346ZM22.3524 15.3055C20.586 15.7888 19.1845 16.1448 18.1372 16.3784C17.0213 16.6273 16.4811 16.6957 16.3307 16.6957V20.6957C16.9864 20.6957 17.9409 20.5205 19.0081 20.2824C20.144 20.0291 21.6141 19.6545 23.408 19.1637L22.3524 15.3055ZM16.2133 16.6991L15.3568 16.7495L15.5917 20.7426L16.4481 20.6922L16.2133 16.6991ZM15.4742 16.7461C15.1949 16.7461 14.8757 16.6998 14.509 16.5852L13.3159 20.4031C14.024 20.6244 14.7459 20.7461 15.4742 20.7461V16.7461ZM14.8069 16.7053C15.1301 16.8669 15.2684 17.0879 15.2962 17.1366C15.3229 17.1833 15.2955 17.1517 15.2547 16.9781L11.361 17.8942C11.5144 18.546 11.888 19.718 13.018 20.283L14.8069 16.7053ZM15.3079 17.4362C15.3079 17.0148 15.3535 16.734 15.4042 16.5603C15.453 16.3929 15.4953 16.3611 15.4753 16.3825L12.5511 13.6532C11.577 14.6969 11.3079 16.1141 11.3079 17.4362H15.3079ZM15.4274 16.4321C15.5803 16.2792 16.1195 15.9262 17.4023 15.5093L16.166 11.7052C14.7618 12.1615 13.4537 12.749 12.599 13.6037L15.4274 16.4321ZM16.9831 15.5973C17.306 15.565 17.7085 15.442 17.948 15.3688C18.2783 15.2678 18.7115 15.1261 19.2395 14.9473C20.2984 14.5886 21.7901 14.0631 23.7082 13.3732L22.3545 9.60924C20.4437 10.2965 18.9797 10.8121 17.9562 11.1587C17.443 11.3326 17.0533 11.4596 16.7791 11.5434C16.414 11.6549 16.4302 11.6326 16.5851 11.6172L16.9831 15.5973ZM23.4844 13.4392L25.6508 12.9354L24.7447 9.0394L22.5783 9.54321L23.4844 13.4392ZM25.8302 12.8848C25.8296 12.885 25.8368 12.8826 25.8533 12.8784C25.8696 12.8742 25.8929 12.8689 25.9241 12.8628C25.9875 12.8505 26.0743 12.8373 26.188 12.8253C26.4179 12.8011 26.7224 12.7859 27.1122 12.7859V8.7859C26.2013 8.7859 25.2909 8.84816 24.5653 9.09005L25.8302 12.8848ZM27.1122 12.7859C28.1207 12.7859 29.0875 12.672 29.9442 12.3696L28.6129 8.59763C28.3277 8.6983 27.8502 8.7859 27.1122 8.7859V12.7859ZM30.0035 12.3476C30.4524 12.173 30.9576 12.0409 31.5263 11.9597L30.9606 7.99991C30.1186 8.12019 29.3139 8.32398 28.5537 8.6196L30.0035 12.3476ZM31.6177 11.9445C32.3116 11.8123 33.0399 11.6799 33.8029 11.5472L33.1175 7.60633C32.3354 7.74235 31.5859 7.87861 30.8692 8.01513L31.6177 11.9445ZM34.1437 11.4563C34.0356 11.4957 33.9726 11.4995 33.9866 11.4982C33.9967 11.4972 34.0448 11.4939 34.1412 11.4987C34.3385 11.5086 34.641 11.5472 35.0702 11.636L35.8806 7.719C35.3358 7.60628 34.8154 7.52741 34.341 7.50368C33.9013 7.4817 33.3296 7.49611 32.7767 7.69717L34.1437 11.4563ZM35.4754 11.6775C35.2312 11.6775 35.0756 11.617 35.0451 11.6046C35.0073 11.5894 35.0216 11.5904 35.095 11.6386C35.2457 11.7377 35.4951 11.9354 35.8549 12.2803L38.6226 9.3923C38.1763 8.96461 37.7287 8.58299 37.2917 8.2958C36.9207 8.05202 36.2685 7.67752 35.4754 7.67752V11.6775ZM35.4005 11.6241L35.7027 12.3294L39.3793 10.7538L39.077 10.0484L35.4005 11.6241ZM35.541 11.5416C35.541 12.0514 35.6698 12.8011 36.278 13.4093L39.1064 10.5808C39.513 10.9874 39.541 11.4348 39.541 11.5416H35.541ZM35.7138 12.2881C35.7326 12.4153 35.7335 12.4915 35.732 12.5256C35.7305 12.5594 35.7274 12.533 35.7499 12.4674C35.7741 12.3968 35.8233 12.2949 35.9134 12.1905C36.0043 12.0851 36.106 12.0131 36.1932 11.9695L37.982 15.5472C38.7374 15.1695 39.2693 14.5358 39.5337 13.7647C39.7757 13.0587 39.764 12.3328 39.6706 11.7019L35.7138 12.2881ZM36.1932 11.9695C36.1311 12.0006 35.8987 12.0969 35.3971 12.264L36.6621 16.0588C37.1681 15.8901 37.6411 15.7177 37.982 15.5472L36.1932 11.9695ZM36.0296 12.1614C35.4715 12.1614 34.7046 12.286 33.874 12.4522C32.9903 12.6289 31.8645 12.8892 30.5065 13.2287L31.4766 17.1093C32.8055 16.7771 33.8629 16.5336 34.6585 16.3745C35.5073 16.2047 35.9159 16.1614 36.0296 16.1614V12.1614ZM30.9915 13.169C30.7363 13.169 30.3483 13.228 30.0903 13.2667C29.7384 13.3195 29.2557 13.3972 28.6475 13.4985L29.3051 17.4441C29.906 17.344 30.3638 17.2705 30.6836 17.2225C30.8446 17.1983 30.9607 17.1821 31.0381 17.1725C31.1604 17.1572 31.1035 17.169 30.9915 17.169V13.169ZM26.9822 15.3179L26.9318 15.9729L30.92 16.2797L30.9704 15.6247L26.9822 15.3179ZM26.9259 16.1263V16.4285H30.9259V16.1263H26.9259Z" fill="#7870DB" mask="url(#path-2-outside-1_368_5202)"/>
<defs>
<linearGradient id="paint0_linear_368_5202" x1="24.901" y1="0.68457" x2="24.901" y2="53.6846" gradientUnits="userSpaceOnUse">
<stop stop-color="#84D3FC"/>
<stop offset="1" stop-color="#7870DB"/>
</linearGradient>
</defs>
</svg>
