<svg width="48" height="48" viewBox="0 0 48 48" fill="none" xmlns="http://www.w3.org/2000/svg">
<rect x="0.5" y="0.5" width="47" height="47" rx="14.5" fill="white" stroke="#E8E6EA"/>
<path d="M30.5 26V19.5C30.5 17.0147 28.4853 15 26 15C23.5147 15 21.5 17.0147 21.5 19.5V26C21.5 28.4853 23.5147 30.5 26 30.5C28.4853 30.5 30.5 28.4853 30.5 26Z" fill="#2F80ED"/>
<path d="M18.5 24.5C19.0523 24.5 19.5 24.9477 19.5 25.5C19.5 29.0899 22.4101 32 26 32C29.5899 32 32.5 29.0899 32.5 25.5C32.5 24.9477 32.9477 24.5 33.5 24.5C34.0523 24.5 34.5 24.9477 34.5 25.5C34.5 29.8561 31.2232 33.4469 27 33.9418V36C27 36.5523 26.5523 37 26 37C25.4477 37 25 36.5523 25 36V33.9418C20.7768 33.4469 17.5 29.8561 17.5 25.5C17.5 24.9477 17.9477 24.5 18.5 24.5Z" fill="#2F80ED"/>
</svg>
